<svg xmlns="http://www.w3.org/2000/svg" version="1.1" xmlns:xlink="http://www.w3.org/1999/xlink" xmlns:svgjs="http://svgjs.dev/svgjs" width="2000" height="606" viewBox="0 0 2000 606"><g transform="matrix(1,0,0,1,-1.2121212121212466,-0.9981909951303578)"><svg viewBox="0 0 396 120" data-background-color="#ffffff" preserveAspectRatio="xMidYMid meet" height="606" width="2000" xmlns="http://www.w3.org/2000/svg" xmlns:xlink="http://www.w3.org/1999/xlink"><g id="tight-bounds" transform="matrix(1,0,0,1,0.2400000000000091,0.19766158319413307)"><svg viewBox="0 0 395.52 119.60467683361173" height="119.60467683361173" width="395.52"><g><svg viewBox="0 0 590.0361262406369 178.42607251003116" height="119.60467683361173" width="395.52"><g transform="matrix(1,0,0,1,194.51612624063694,55.13624624164064)"><svg viewBox="0 0 395.52 68.15358002674988" height="68.15358002674988" width="395.52"><g id="textblocktransform"><svg viewBox="0 0 395.52 68.15358002674988" height="68.15358002674988" width="395.52" id="textblock"><g><svg viewBox="0 0 395.52 68.15358002674988" height="68.15358002674988" width="395.52"><g transform="matrix(1,0,0,1,0,0)"><svg width="395.52" viewBox="1.6 -38.25 224.29 38.65" height="68.15358002674988" data-palette-color="#010c80"><path d="M27.15-33.45L24.4-27.9Q22.3-29.05 20.13-29.8 17.95-30.55 16.05-30.55L16.05-30.55Q13.7-30.55 12.35-29.6 11-28.65 11-26.75L11-26.75Q11-25.45 12.03-24.43 13.05-23.4 14.68-22.6 16.3-21.8 18.05-21.15L18.05-21.15Q19.65-20.55 21.23-19.73 22.8-18.9 24.05-17.68 25.3-16.45 26.05-14.63 26.8-12.8 26.8-10.15L26.8-10.15Q26.8-7.35 25.35-4.95 23.9-2.55 21.1-1.07 18.3 0.4 14.2 0.4L14.2 0.4Q12.1 0.4 9.93-0.03 7.75-0.45 5.65-1.33 3.55-2.2 1.6-3.55L1.6-3.55 4.8-9.2Q6.1-8.25 7.63-7.53 9.15-6.8 10.7-6.4 12.25-6 13.55-6L13.55-6Q14.85-6 16.18-6.38 17.5-6.75 18.38-7.65 19.25-8.55 19.25-10.15L19.25-10.15Q19.25-11.25 18.53-12.15 17.8-13.05 16.57-13.8 15.35-14.55 13.9-15.1L13.9-15.1Q12.2-15.75 10.4-16.6 8.6-17.45 7.03-18.68 5.45-19.9 4.48-21.73 3.5-23.55 3.5-26.2L3.5-26.2Q3.5-29.4 4.93-31.75 6.35-34.1 8.95-35.48 11.55-36.85 14.95-37L14.95-37Q19.4-37 22.18-35.95 24.95-34.9 27.15-33.45L27.15-33.45ZM40.4-36.8L40.4-13.6Q40.4-11.85 41.45-10.25 42.5-8.65 44.22-7.65 45.95-6.65 48-6.65L48-6.65Q50.25-6.65 52-7.65 53.75-8.65 54.77-10.25 55.8-11.85 55.8-13.6L55.8-13.6 55.8-36.8 62.95-36.8 62.95-13.45Q62.95-9.4 60.95-6.28 58.95-3.15 55.55-1.38 52.15 0.4 48 0.4L48 0.4 48 0.4Q43.9 0.4 40.52-1.38 37.15-3.15 35.15-6.28 33.15-9.4 33.15-13.45L33.15-13.45 33.15-36.8 40.4-36.8ZM71.7-36.8L82.5-36.8Q88.25-36.8 91.65-34.48 95.05-32.15 95.05-27.55L95.05-27.55Q95.05-24.15 93.37-21.88 91.7-19.6 88.82-18.48 85.95-17.35 82.25-17.35L82.25-17.35 81.1-21.25Q85.65-21.25 89.17-20 92.7-18.75 94.75-16.43 96.8-14.1 96.8-10.85L96.8-10.85Q96.8-7.85 95.72-5.78 94.65-3.7 92.82-2.43 91-1.15 88.7-0.58 86.4 0 83.95 0L83.95 0 71.7 0 71.7-36.8ZM78.95-21.75L83.35-21.75Q85.5-21.75 86.52-23.05 87.55-24.35 87.55-26L87.55-26Q87.55-27.9 86.27-28.85 85-29.8 82.85-29.8L82.85-29.8 78.95-29.8 78.95-21.75ZM78.95-6.75L83.6-6.75Q85.2-6.75 86.5-7.18 87.8-7.6 88.55-8.53 89.3-9.45 89.3-10.85L89.3-10.85Q89.3-12.45 88.4-13.28 87.5-14.1 86.07-14.43 84.65-14.75 83.1-14.75L83.1-14.75 78.95-14.75 78.95-6.75ZM104.04-36.8L115.19-36.8Q118.64-36.8 121.34-35.93 124.04-35.05 125.87-33.43 127.69-31.8 128.64-29.53 129.59-27.25 129.59-24.4L129.59-24.4Q129.59-22.15 128.92-19.9 128.24-17.65 126.72-15.8 125.19-13.95 122.69-12.83 120.19-11.7 116.49-11.7L116.49-11.7 111.29-11.7 111.29 0 104.04 0 104.04-36.8ZM111.29-18.7L116.44-18.7Q118.09-18.7 119.19-19.25 120.29-19.8 120.92-20.65 121.54-21.5 121.82-22.43 122.09-23.35 122.09-24.15L122.09-24.15Q122.09-24.75 121.92-25.68 121.74-26.6 121.19-27.55 120.64-28.5 119.52-29.15 118.39-29.8 116.49-29.8L116.49-29.8 111.29-29.8 111.29-18.7ZM114.59-14L123.24-14.2 132.34 0 123.89 0 114.59-14ZM141.34 0L134.19 0 150.79-38.25 151.19-38.25 167.79 0 159.39 0 148.79-26.9 154.04-30.5 141.34 0ZM143.29-7.2L145.54-13.3 156.59-13.3 159.14-7.2 143.29-7.2ZM167.64-29.8L167.64-36.8 192.44-36.8 192.44-29.8 183.49-29.8 183.49 0 176.24 0 176.24-29.8 167.64-29.8ZM199.44 0L192.29 0 208.89-38.25 209.29-38.25 225.89 0 217.49 0 206.89-26.9 212.14-30.5 199.44 0ZM201.39-7.2L203.64-13.3 214.69-13.3 217.24-7.2 201.39-7.2Z" opacity="1" transform="matrix(1,0,0,1,0,0)" fill="#000000" class="wordmark-text-0" data-fill-palette-color="primary" id="text-0"></path></svg></g></svg></g></svg></g></svg></g><g><svg viewBox="0 0 178.42670168224194 178.42607251003116" height="178.42607251003116" width="178.42670168224194"><g><svg xmlns="http://www.w3.org/2000/svg" xmlns:xlink="http://www.w3.org/1999/xlink" version="1.1" x="0" y="0" viewBox="7.734947788353146 7.7352458618416104 84.53054425048146 84.53024617699299" enable-background="new 0 0 100 100" xml:space="preserve" height="178.42607251003116" width="178.42670168224194" class="icon-icon-0" data-fill-palette-color="accent" id="icon-0"><g fill="#77d4fc" data-fill-palette-color="accent"><g fill="#77d4fc" data-fill-palette-color="accent"><g fill="#77d4fc" data-fill-palette-color="accent"><path d="M28.368 14.767C42.162 16.327 48.04 25.762 49.69 30.695c1.07 3.198 1.472 5.094 1.472 9.275 0 0.817 0.044 2.076-1.054 2.216-0.77 0.099-1.209-0.509-1.273-1.182-0.289-3.026-1.159-6.569-4.008-9.85-2.253-2.594-7.472-7.802-16.652-7.021-2.669 0.228-5.052-1.868-5.129-4.564C22.964 16.703 25.531 14.446 28.368 14.767z" fill="#000000" data-fill-palette-color="accent"></path><path d="M71.633 85.232c-13.794-1.561-19.671-10.995-21.322-15.929-1.07-3.198-1.472-5.094-1.472-9.275 0-0.817-0.044-2.076 1.054-2.216 0.77-0.099 1.209 0.509 1.273 1.182 0.289 3.026 1.159 6.569 4.008 9.85 2.253 2.594 7.472 7.802 16.652 7.021 2.669-0.228 5.052 1.868 5.129 4.564C77.037 83.296 74.47 85.553 71.633 85.232z" fill="#000000" data-fill-palette-color="accent"></path></g><g fill="#77d4fc" data-fill-palette-color="accent"><path d="M14.768 71.633c1.56-13.794 10.995-19.672 15.928-21.322 3.198-1.07 5.094-1.472 9.276-1.472 0.817 0 2.076-0.045 2.216 1.054 0.098 0.77-0.509 1.209-1.182 1.273-3.026 0.288-6.569 1.159-9.849 4.008-2.594 2.254-7.802 7.473-7.021 16.652 0.228 2.669-1.868 5.052-4.564 5.129C16.704 77.036 14.447 74.47 14.768 71.633z" fill="#000000" data-fill-palette-color="accent"></path><path d="M85.233 28.367c-1.56 13.794-10.995 19.672-15.928 21.322-3.198 1.07-5.094 1.472-9.276 1.472-0.817 0-2.076 0.045-2.216-1.054-0.098-0.77 0.509-1.209 1.182-1.273 3.026-0.288 6.569-1.159 9.849-4.008 2.594-2.254 7.802-7.473 7.021-16.652-0.228-2.669 1.868-5.052 4.564-5.129C83.297 22.964 85.554 25.53 85.233 28.367z" fill="#000000" data-fill-palette-color="accent"></path></g></g><g fill="#77d4fc" data-fill-palette-color="accent"><g fill="#77d4fc" data-fill-palette-color="accent"><path d="M13.65 30.304c12.726-5.546 22.533-0.314 26.43 3.133 2.526 2.234 3.821 3.676 5.912 7.297 0.409 0.708 1.077 1.775 0.195 2.446-0.617 0.47-1.302 0.164-1.693-0.387-1.763-2.477-4.289-5.109-8.396-6.525-3.249-1.12-10.373-3.021-17.931 2.246-2.198 1.531-5.309 0.907-6.724-1.389C9.938 34.682 11.033 31.444 13.65 30.304z" fill="#000000" data-fill-palette-color="accent"></path><path d="M86.351 69.695c-12.726 5.546-22.533 0.314-26.43-3.133-2.526-2.234-3.821-3.676-5.912-7.297-0.409-0.708-1.077-1.775-0.196-2.446 0.618-0.47 1.302-0.164 1.694 0.387 1.763 2.477 4.289 5.109 8.396 6.525 3.249 1.12 10.373 3.021 17.931-2.245 2.198-1.532 5.309-0.908 6.724 1.388C90.063 65.317 88.968 68.555 86.351 69.695z" fill="#000000" data-fill-palette-color="accent"></path></g><g fill="#77d4fc" data-fill-palette-color="accent"><path d="M30.304 86.351c-5.546-12.726-0.314-22.533 3.133-26.43 2.235-2.525 3.676-3.821 7.298-5.912 0.708-0.409 1.775-1.076 2.445-0.195 0.47 0.617 0.164 1.302-0.387 1.693-2.477 1.764-5.109 4.289-6.525 8.396-1.12 3.248-3.021 10.372 2.246 17.931 1.531 2.198 0.908 5.31-1.389 6.725C34.683 90.062 31.445 88.968 30.304 86.351z" fill="#000000" data-fill-palette-color="accent"></path><path d="M69.696 13.649c5.546 12.726 0.314 22.533-3.133 26.43-2.234 2.526-3.675 3.821-7.297 5.913-0.708 0.408-1.775 1.076-2.446 0.195-0.47-0.618-0.163-1.303 0.388-1.694 2.477-1.763 5.109-4.288 6.525-8.396 1.12-3.249 3.021-10.372-2.246-17.932-1.532-2.198-0.908-5.309 1.388-6.724C65.318 9.938 68.556 11.032 69.696 13.649z" fill="#000000" data-fill-palette-color="accent"></path></g></g><g fill="#77d4fc" data-fill-palette-color="accent"><g fill="#77d4fc" data-fill-palette-color="accent"><path d="M8.671 51.118c8.248-11.166 19.357-11.539 24.456-10.502 3.305 0.672 5.147 1.272 8.769 3.363 0.708 0.408 1.82 0.999 1.392 2.021-0.299 0.716-1.045 0.793-1.66 0.512-2.765-1.263-6.269-2.28-10.533-1.453-3.374 0.654-10.494 2.57-14.406 10.911-1.138 2.425-4.144 3.44-6.518 2.159C7.646 56.766 6.976 53.414 8.671 51.118z" fill="#000000" data-fill-palette-color="accent"></path><path d="M91.329 48.882C83.081 60.047 71.971 60.42 66.874 59.383c-3.305-0.672-5.147-1.272-8.769-3.363-0.708-0.408-1.82-0.999-1.393-2.021 0.3-0.716 1.046-0.793 1.66-0.512 2.766 1.264 6.269 2.28 10.534 1.453 3.373-0.654 10.493-2.569 14.406-10.91 1.138-2.426 4.144-3.441 6.517-2.16C92.354 43.233 93.025 46.585 91.329 48.882z" fill="#000000" data-fill-palette-color="accent"></path></g><g fill="#77d4fc" data-fill-palette-color="accent"><path d="M51.119 91.329C39.953 83.081 39.58 71.972 40.617 66.874c0.673-3.305 1.272-5.147 3.364-8.77 0.409-0.708 1-1.819 2.02-1.392 0.716 0.3 0.793 1.045 0.512 1.66-1.263 2.765-2.28 6.269-1.453 10.533 0.654 3.374 2.57 10.493 10.911 14.406 2.425 1.138 3.44 4.144 2.159 6.518C56.766 92.354 53.415 93.025 51.119 91.329z" fill="#000000" data-fill-palette-color="accent"></path><path d="M48.882 8.672c11.166 8.247 11.538 19.356 10.501 24.455-0.672 3.305-1.271 5.147-3.362 8.77-0.409 0.707-1 1.819-2.021 1.392-0.716-0.3-0.792-1.046-0.511-1.661 1.263-2.765 2.28-6.268 1.453-10.533-0.655-3.373-2.57-10.492-10.911-14.406-2.426-1.137-3.44-4.144-2.159-6.517C43.234 7.646 46.585 6.976 48.882 8.672z" fill="#000000" data-fill-palette-color="accent"></path></g></g></g></svg></g></svg></g></svg></g><defs></defs></svg><rect width="395.52" height="119.60467683361173" fill="none" stroke="none" visibility="hidden"></rect></g></svg></g></svg>